<?xml version="1.0" encoding="UTF-8" standalone="no"?>
<svg
   xmlns:dc="http://purl.org/dc/elements/1.1/"
   xmlns:cc="http://creativecommons.org/ns#"
   xmlns:rdf="http://www.w3.org/1999/02/22-rdf-syntax-ns#"
   xmlns:svg="http://www.w3.org/2000/svg"
   xmlns="http://www.w3.org/2000/svg"
   xmlns:sodipodi="http://sodipodi.sourceforge.net/DTD/sodipodi-0.dtd"
   xmlns:inkscape="http://www.inkscape.org/namespaces/inkscape"
   viewBox="0 0 1140 360"
   enable-background="new 0 0 1140 360"
   id="svg3336"
   version="1.1"
   inkscape:version="0.91 r13725"
   sodipodi:docname="banner1.svg">
  <metadata
     id="metadata3346">
    <rdf:RDF>
      <cc:Work
         rdf:about="">
        <dc:format>image/svg+xml</dc:format>
        <dc:type
           rdf:resource="http://purl.org/dc/dcmitype/StillImage" />
      </cc:Work>
    </rdf:RDF>
  </metadata>
  <defs
     id="defs3344" />
  <sodipodi:namedview
     pagecolor="#ffffff"
     bordercolor="#666666"
     borderopacity="1"
     objecttolerance="10"
     gridtolerance="10"
     guidetolerance="10"
     inkscape:pageopacity="0"
     inkscape:pageshadow="2"
     inkscape:window-width="1920"
     inkscape:window-height="1017"
     id="namedview3342"
     showgrid="false"
     inkscape:snap-text-baseline="true"
     inkscape:snap-nodes="false"
     inkscape:zoom="1.5482456"
     inkscape:cx="491.33415"
     inkscape:cy="214.43327"
     inkscape:window-x="-8"
     inkscape:window-y="-8"
     inkscape:window-maximized="1"
     inkscape:current-layer="svg3336" />
  <path
     d="M0 0h1140v360h-1140v-360z"
     id="path3338"
     fill="#56B4D9" />
  <path
     d="m 439.5,62 -1,0 0,74 1,0 z m 83.592,54.095 -1.842,0 -7.165,-24.235 c -0.359,-1.243 -0.562,-2.253 -0.606,-3.032 l -0.09,0 c -0.045,0.659 -0.277,1.655 -0.696,2.987 l -7.637,24.28 -1.842,0 -9.568,-32.209 2.493,0 7.345,25.808 c 0.329,1.168 0.562,2.119 0.696,2.853 l 0.09,0 c 0.09,-0.554 0.352,-1.505 0.786,-2.853 l 7.951,-25.808 1.123,0 7.3,25.808 c 0.344,1.198 0.576,2.149 0.696,2.853 l 0.09,0 c 0.075,-0.419 0.194,-0.898 0.359,-1.438 l 7.547,-27.223 2.403,0 z M 537.537,87.3 c -0.449,0 -0.846,-0.165 -1.19,-0.494 -0.345,-0.329 -0.517,-0.749 -0.517,-1.258 0,-0.494 0.176,-0.895 0.528,-1.202 0.352,-0.307 0.745,-0.46 1.179,-0.46 0.464,0 0.872,0.15 1.224,0.449 0.352,0.3 0.528,0.704 0.528,1.213 0,0.479 -0.172,0.891 -0.517,1.235 -0.344,0.345 -0.756,0.517 -1.235,0.517 z m -1.011,28.795 0,-23 2.066,0 0,23 z m 24.239,0 0,-13.387 c 0,-5.525 -1.992,-8.288 -5.975,-8.288 -2.216,0 -4.036,0.813 -5.458,2.437 -1.423,1.625 -2.134,3.635 -2.134,6.031 l 0,13.207 -2.066,0 0,-23 2.066,0 0,4.178 0.09,0 c 1.677,-3.159 4.297,-4.739 7.861,-4.739 2.485,0 4.387,0.828 5.705,2.482 1.317,1.655 1.977,4.017 1.977,7.086 l 0,13.993 z m 24.485,0 0,-4.178 -0.09,0 c -0.748,1.453 -1.855,2.605 -3.324,3.459 -1.467,0.854 -3.122,1.28 -4.963,1.28 -2.83,0 -5.14,-1.033 -6.929,-3.1 -1.79,-2.066 -2.684,-4.919 -2.684,-8.558 0,-3.713 0.977,-6.719 2.931,-9.018 1.954,-2.298 4.488,-3.448 7.603,-3.448 3.445,0 5.9,1.415 7.367,4.245 l 0.09,0 0,-14.733 2.066,0 0,34.051 z m 0,-13.993 c 0,-2.141 -0.678,-3.957 -2.031,-5.447 -1.355,-1.49 -3.18,-2.235 -5.47,-2.235 -2.411,0 -4.402,0.925 -5.975,2.774 -1.572,1.85 -2.358,4.391 -2.358,7.625 0,3.175 0.708,5.626 2.123,7.356 1.415,1.73 3.238,2.594 5.469,2.594 2.62,0 4.649,-0.812 6.086,-2.437 1.438,-1.625 2.156,-3.605 2.156,-5.941 z m 17.838,14.554 c -3.354,0 -6.009,-1.104 -7.962,-3.313 -1.955,-2.208 -2.932,-5.08 -2.932,-8.614 0,-3.818 1.021,-6.806 3.066,-8.962 2.043,-2.156 4.735,-3.234 8.074,-3.234 3.279,0 5.87,1.071 7.771,3.212 1.901,2.142 2.853,5.106 2.853,8.895 0,3.579 -0.97,6.477 -2.909,8.692 -1.938,2.216 -4.592,3.324 -7.961,3.324 z m 0.157,-22.236 c -2.71,0 -4.87,0.914 -6.48,2.74 -1.609,1.827 -2.414,4.365 -2.414,7.614 0,3.01 0.786,5.428 2.358,7.255 1.572,1.827 3.721,2.74 6.446,2.74 2.771,0 4.904,-0.898 6.401,-2.695 1.497,-1.797 2.246,-4.29 2.246,-7.479 0,-3.279 -0.745,-5.795 -2.235,-7.547 -1.489,-1.752 -3.596,-2.628 -6.322,-2.628 z m 35.087,21.675 -1.932,0 -5.009,-17.34 c -0.135,-0.479 -0.255,-1.123 -0.359,-1.932 l -0.112,0 c -0.03,0.345 -0.18,0.974 -0.449,1.887 l -5.615,17.385 -1.932,0 -6.94,-23 2.291,0 5.346,18.351 c 0.135,0.479 0.239,1.123 0.314,1.932 l 0.18,0 c 0.03,-0.434 0.172,-1.078 0.427,-1.932 l 5.84,-18.351 1.415,0 5.211,18.351 c 0.12,0.435 0.225,1.078 0.314,1.932 l 0.18,0 c 0,-0.434 0.127,-1.078 0.382,-1.932 l 5.458,-18.351 2.134,0 z m 9.616,-1.011 0,-2.493 c 0.778,0.674 1.722,1.206 2.83,1.595 1.108,0.39 2.066,0.584 2.875,0.584 3.608,0 5.413,-1.475 5.413,-4.425 0,-1.018 -0.396,-1.887 -1.19,-2.605 -0.794,-0.718 -2.081,-1.46 -3.863,-2.224 -2.201,-0.958 -3.747,-1.95 -4.638,-2.976 -0.892,-1.025 -1.337,-2.272 -1.337,-3.74 0,-1.872 0.715,-3.384 2.146,-4.537 1.43,-1.153 3.192,-1.729 5.289,-1.729 1.977,0 3.669,0.404 5.076,1.213 l 0,2.336 c -1.707,-1.108 -3.474,-1.662 -5.301,-1.662 -1.513,0 -2.732,0.393 -3.661,1.179 -0.929,0.786 -1.393,1.808 -1.393,3.066 0,1.093 0.292,1.98 0.876,2.662 0.584,0.682 1.872,1.464 3.863,2.347 2.396,1.078 4.043,2.078 4.941,2.999 0.898,0.921 1.348,2.145 1.348,3.672 0,1.827 -0.686,3.335 -2.055,4.526 -1.371,1.19 -3.261,1.786 -5.672,1.786 -2.215,-0.002 -4.064,-0.526 -5.547,-1.574 z m 80.185,1.011 0,-32.209 2.224,0 0,30.188 12.915,0 0,2.021 z M 748.935,87.3 c -0.449,0 -0.846,-0.165 -1.19,-0.494 -0.345,-0.329 -0.517,-0.749 -0.517,-1.258 0,-0.494 0.176,-0.895 0.528,-1.202 0.352,-0.307 0.744,-0.46 1.179,-0.46 0.464,0 0.872,0.15 1.224,0.449 0.353,0.3 0.528,0.704 0.528,1.213 0,0.479 -0.172,0.891 -0.517,1.235 -0.345,0.345 -0.756,0.517 -1.235,0.517 z m -1.011,28.795 0,-23 2.066,0 0,23 z m 24.238,0 0,-13.387 c 0,-5.525 -1.991,-8.288 -5.975,-8.288 -2.216,0 -4.035,0.813 -5.458,2.437 -1.423,1.625 -2.134,3.635 -2.134,6.031 l 0,13.207 -2.066,0 0,-23 2.066,0 0,4.178 0.09,0 c 1.677,-3.159 4.298,-4.739 7.861,-4.739 2.485,0 4.388,0.828 5.705,2.482 1.317,1.655 1.977,4.017 1.977,7.086 l 0,13.993 z m 23.34,0 0,-4.178 -0.09,0 c -1.603,3.16 -4.073,4.739 -7.412,4.739 -5.436,0 -8.153,-3.421 -8.153,-10.265 l 0,-13.296 2.089,0 0,12.78 c 0,3.115 0.513,5.376 1.539,6.783 1.025,1.408 2.639,2.111 4.84,2.111 2.142,0 3.875,-0.786 5.199,-2.358 1.326,-1.572 1.988,-3.668 1.988,-6.289 l 0,-13.027 2.066,0 0,23 z m 15.727,-11.276 7.502,11.275 -2.628,0 -6.064,-9.703 -0.09,0 -0.809,1.28 c -0.104,0.18 -0.232,0.382 -0.382,0.606 l -5.076,7.816 -2.516,0 7.682,-11.23 -7.547,-11.77 2.426,0 5.121,8.243 c 0.659,1.063 1.056,1.722 1.19,1.977 l 0.09,0 1.146,-1.887 5.346,-8.333 2.426,0 z m 85.656,11.837 c -4.552,0 -8.18,-1.512 -10.883,-4.537 -2.702,-3.024 -4.054,-6.955 -4.054,-11.792 0,-5.136 1.389,-9.25 4.167,-12.342 2.777,-3.092 6.569,-4.638 11.376,-4.638 4.343,0 7.857,1.486 10.546,4.458 2.688,2.973 4.031,6.87 4.031,11.691 0,5.331 -1.378,9.523 -4.133,12.578 -2.755,3.055 -6.438,4.582 -11.05,4.582 z m 0.224,-31.288 c -3.743,0 -6.824,1.355 -9.242,4.065 -2.419,2.71 -3.628,6.259 -3.628,10.646 0,4.433 1.146,7.962 3.437,10.59 2.291,2.628 5.346,3.942 9.164,3.942 3.983,0 7.135,-1.299 9.456,-3.897 2.321,-2.598 3.481,-6.218 3.481,-10.86 0,-4.552 -1.135,-8.104 -3.402,-10.658 -2.27,-2.551 -5.357,-3.828 -9.266,-3.828 z m 19.702,29.581 0,-2.538 c 2.306,1.468 4.642,2.201 7.008,2.201 2.516,0 4.425,-0.52 5.728,-1.561 1.303,-1.041 1.954,-2.497 1.954,-4.369 0,-1.647 -0.438,-2.961 -1.313,-3.942 -0.877,-0.98 -2.774,-2.317 -5.694,-4.009 -3.265,-1.901 -5.331,-3.493 -6.199,-4.773 -0.868,-1.28 -1.303,-2.759 -1.303,-4.436 0,-2.276 0.884,-4.208 2.65,-5.795 1.767,-1.587 4.125,-2.381 7.075,-2.381 1.917,0 3.833,0.322 5.75,0.966 l 0,2.336 c -1.887,-0.854 -3.9,-1.28 -6.042,-1.28 -2.187,0 -3.919,0.554 -5.2,1.662 -1.279,1.108 -1.92,2.516 -1.92,4.223 0,1.647 0.438,2.958 1.314,3.931 0.875,0.974 2.766,2.299 5.671,3.976 3.01,1.707 5.013,3.223 6.009,4.548 0.995,1.325 1.493,2.849 1.493,4.571 0,2.471 -0.857,4.485 -2.571,6.042 -1.715,1.558 -4.137,2.336 -7.267,2.336 -1.108,0 -2.385,-0.172 -3.829,-0.517 -1.446,-0.345 -2.551,-0.742 -3.314,-1.191 z m 40.5,1.146 -7.412,-12.286 c -0.464,-0.764 -0.861,-1.512 -1.19,-2.246 l -0.112,0 c -0.404,0.824 -0.831,1.572 -1.28,2.246 l -7.547,12.286 -2.673,0 10.175,-16.239 -9.568,-15.97 2.673,0 7.21,12.106 c 0.374,0.629 0.764,1.348 1.168,2.156 l 0.09,0 1.19,-2.156 7.165,-12.106 2.583,0 -9.658,15.925 9.883,16.284 z"
     id="path3340"
     inkscape:connector-curvature="0"
     style="fill:#ffffff"
     sodipodi:nodetypes="ccccccccccccccccccccccccccccscssscscsccccccsscsccccccscsccccccscscsccccccscscssscssscscscscsscssssscsccccccccccccccccccccccccccsssccscsccsssscssccccccccccscssscscsccccccsscsccccccscscccccssccscscscccccccccccccccccccccccscscscsssscssssscsccsssccsscsccscscccscsccccccccccccccccccccc" />
  <text
     xml:space="preserve"
     style="font-style:normal;font-variant:normal;font-weight:normal;font-stretch:normal;font-size:47.5px;line-height:50%;font-family:'Arial Unicode MS';-inkscape-font-specification:'Arial Unicode MS, Normal';text-align:start;letter-spacing:0px;word-spacing:0px;writing-mode:lr-tb;text-anchor:start;fill:#ffffff;fill-opacity:1;stroke:none;stroke-width:1px;stroke-linecap:butt;stroke-linejoin:miter;stroke-opacity:1"
     x="211.79037"
     y="116.99717"
     id="text4199"
     sodipodi:linespacing="50%"><tspan
       sodipodi:role="line"
       id="tspan4205"
       x="211.79037"
       y="116.99717">OneBlock</tspan></text>
  <path
     inkscape:connector-curvature="0"
     style="clip-rule:evenodd;fill:#ffffff;fill-rule:evenodd"
     d="m 177.93173,77.474079 -35.14747,34.670881 -13.10375,-12.869571 35.17807,-34.70105 13.07315,12.89974 z m 3.47494,3.37958 19.6097,19.311891 -23.3755,23.02339 -19.60971,-19.28171 23.37551,-23.053571 z m -7.17951,45.699771 -8.41947,8.28299 -19.5944,-19.31188 8.41947,-8.283 19.5944,19.31189 z"
     id="path3" />
</svg>
